<svg
  fill=" #f5f5f5"
  viewBox="-2.4 -2.4 28.80 28.80"
  xmlns="http://www.w3.org/2000/svg"
  stroke=" #f5f5f5"
>
  <g id="SVGRepo_bgCarrier" stroke-width="0"></g>
  <g
    id="SVGRepo_tracerCarrier"
    stroke-linecap="round"
    stroke-linejoin="round"
  ></g>
  <g id="SVGRepo_iconCarrier">
    <path
      d="M17.895 3.553A1.001 1.001 0 0 0 17 3H7c-.379 0-.725.214-.895.553l-4 8a1 1 0 0 0 0 .895l4 8c.17.338.516.552.895.552h10c.379 0 .725-.214.895-.553l4-8a1 1 0 0 0 0-.895l-4-7.999zM19.382 11h-7.764l-3-6h7.764l3 6zm-3 8H8.618l3-6h7.764l-3 6z"
    ></path>
  </g>
</svg>
