<svg
  width="419"
  height="419"
  viewBox="0 0 419 419"
  fill="none"
  xmlns="http://www.w3.org/2000/svg"
>
  <mask
    id="mask0_43_180"
    style="mask-type: alpha"
    maskUnits="userSpaceOnUse"
    x="-1"
    y="-1"
    width="421"
    height="421"
  >
    <path
      d="M337.5 0H81.5C36.4888 0 0 36.4888 0 81.5V337.5C0 382.511 36.4888 419 81.5 419H337.5C382.511 419 419 382.511 419 337.5V81.5C419 36.4888 382.511 0 337.5 0Z"
      fill="white"
      stroke="white"
    />
  </mask>
  <g mask="url(#mask0_43_180)">
    <g filter="url(#filter0_d_43_180)">
      <path
        d="M209 330C275.274 330 329 276.274 329 210C329 143.726 275.274 90 209 90C142.726 90 89 143.726 89 210C89 276.274 142.726 330 209 330Z"
        stroke="white"
        stroke-width="49"
      />
    </g>
  </g>
  <defs>
    <filter
      id="filter0_d_43_180"
      x="0.5"
      y="1.5"
      width="417"
      height="417"
      filterUnits="userSpaceOnUse"
      color-interpolation-filters="sRGB"
    >
      <feFlood flood-opacity="0" result="BackgroundImageFix" />
      <feColorMatrix
        in="SourceAlpha"
        type="matrix"
        values="0 0 0 0 0 0 0 0 0 0 0 0 0 0 0 0 0 0 127 0"
        result="hardAlpha"
      />
      <feOffset />
      <feGaussianBlur stdDeviation="32" />
      <feComposite in2="hardAlpha" operator="out" />
      <feColorMatrix
        type="matrix"
        values="0 0 0 0 1 0 0 0 0 1 0 0 0 0 1 0 0 0 0.25 0"
      />
      <feBlend
        mode="normal"
        in2="BackgroundImageFix"
        result="effect1_dropShadow_43_180"
      />
      <feBlend
        mode="normal"
        in="SourceGraphic"
        in2="effect1_dropShadow_43_180"
        result="shape"
      />
    </filter>
  </defs>
</svg>
